<svg xmlns="http://www.w3.org/2000/svg" viewBox="0 0 50 50">
  <path d="M24.8125 6.53125C20.890625 11.007813 18.839844 18.421875 19.09375 25.75L30.5 25.75C30.851563 18.273438 28.796875 10.890625 24.8125 6.53125 Z M 0 16.03125C0.386719 19.785156 1.167969 22.820313 2.4375 25.75L16.3125 25.75C12.652344 20.25 7.136719 17.300781 0 16.03125 Z M 50 16.0625C42.746094 17.164063 37.148438 20.265625 33.25 25.75L47.375 25.75C48.703125 22.859375 49.546875 19.730469 50 16.0625 Z M 3.5 28.5625C3.878906 29.386719 4.5 30.417969 5.03125 31.15625L44.6875 31.125C45.265625 30.316406 45.785156 29.484375 46.1875 28.5625 Z M 6.875 33.78125C7.695313 34.867188 8.382813 35.308594 9.40625 36.125L40.125 36.125C40.984375 35.453125 41.886719 34.660156 42.6875 33.78125 Z M 12.6875 38.28125C15.308594 39.902344 18.382813 40.964844 21.875 41.6875L21.46875 38.28125 Z M 22.3125 38.28125C22.988281 39.6875 23.859375 40.867188 24.84375 42C25.8125 40.847656 26.441406 39.667969 27.125 38.28125 Z M 28.15625 38.28125L27.625 41.5C31.132813 40.855469 34.222656 39.835938 36.90625 38.28125Z" fill="#030303" />
</svg>