<svg id="heart-circle_bold" data-name="heart-circle/bold" xmlns="http://www.w3.org/2000/svg" width="24" height="24" viewBox="0 0 24 24">
  <g id="vuesax_bold_heart-circle" data-name="vuesax/bold/heart-circle">
    <g id="heart-circle">
      <path id="Vector" d="M0,0H24V24H0Z" fill="none" opacity="0"/>
      <path id="Vector-2" data-name="Vector" d="M10,0A10,10,0,1,0,20,10,10,10,0,0,0,10,0Zm.33,15a1.269,1.269,0,0,1-.67,0C8.1,14.47,4.6,12.24,4.6,8.46A3,3,0,0,1,10,6.65a3,3,0,0,1,5.4,1.81C15.4,12.24,11.9,14.47,10.33,15Z" transform="translate(2 2)" fill="#fff"/>
    </g>
  </g>
</svg>
