<svg xmlns="http://www.w3.org/2000/svg" width="20.583" height="20.583" viewBox="0 0 20.583 20.583">
  <path id="icons8_instagram" d="M9,3A6.011,6.011,0,0,0,3,9.005v8.576a6.01,6.01,0,0,0,6.005,6h8.576a6.011,6.011,0,0,0,6-6.005V9a6.011,6.011,0,0,0-6.005-6ZM19.295,6.431a.858.858,0,1,1-.858.858A.858.858,0,0,1,19.295,6.431Zm-6,1.715a5.146,5.146,0,1,1-5.146,5.146A5.151,5.151,0,0,1,13.292,8.146Zm0,1.715a3.431,3.431,0,1,0,3.43,3.431,3.431,3.431,0,0,0-3.43-3.431Z" transform="translate(-3 -3)" fill="#A1A2A9"/>
</svg>
