<svg id="key" xmlns="http://www.w3.org/2000/svg" width="24" height="24" viewBox="0 0 24 24">
  <g id="vuesax_bold_key-square" data-name="vuesax/bold/key-square">
    <path id="Vector" d="M2.5,1.25A1.25,1.25,0,1,1,1.25,0,1.25,1.25,0,0,1,2.5,1.25Z" transform="translate(12 9.5)" fill="#a1a2a9"/>
    <path id="Vector-2" data-name="Vector" d="M14.19,0H5.81C2.17,0,0,2.17,0,5.81v8.37C0,17.83,2.17,20,5.81,20h8.37c3.64,0,5.81-2.17,5.81-5.81V5.81C20,2.17,17.83,0,14.19,0Zm-.3,11.47a3.782,3.782,0,0,1-3.8.93L9.03,13.45a.261.261,0,0,1-.35,0l-.97-.97a.387.387,0,0,0-.53,0,.377.377,0,0,0,0,.53l.97.97a.242.242,0,0,1,0,.35l-.41.41A.968.968,0,0,1,7,15l-1.09-.15a.95.95,0,0,1-.75-.75l-.15-1.09a.992.992,0,0,1,.24-.74L7.6,9.92a3.784,3.784,0,1,1,6.29,1.55Z" transform="translate(2 2)" fill="#a1a2a9"/>
    <path id="Vector-3" data-name="Vector" d="M0,0H24V24H0Z" transform="translate(24 24) rotate(180)" fill="none" opacity="0"/>
  </g>
</svg>
