<svg xmlns="http://www.w3.org/2000/svg" xmlns:xlink="http://www.w3.org/1999/xlink" width="100" height="58" viewBox="0 0 100 58">
  <defs>
    <clipPath id="clip-logo">
      <rect width="100" height="58"/>
    </clipPath>
  </defs>
  <g id="logo" clip-path="url(#clip-logo)">
    <path id="Path_1" data-name="Path 1" d="M202.986,363.736c-2.666,7.07.2,16.363,6.7,20.3s6.7-3.154,8.082-3.154-.394,7.1,1.972,8.477,4.928-6.111,7.1-4.534-.592,6.308,1.577,7.1c1.861.677,16.915-20.859,25.381-27.1a2.472,2.472,0,0,0-.124-4.093c-2.209-1.391-4.8-2.9-5.938-3.109-2.169-.394-16.362,20.7-17.151,23.459s2.169-8.082.2-7.885-8.082,8.871-8.082,8.871,15.573-27.993,12.419-28.19S207.8,350.975,202.986,363.736Z" transform="translate(-199.667 -349)" fill="#ff6452"/>
    <path id="Path_2" data-name="Path 2" d="M235.891,389.415s17.125-22.558,22.49-23.934c1.528-.391,18.059,5.323,23.177,7.084,6.4,2.2,5.576,10.353,7.153,11.142s.817-8.537,2.2-8.537,7.363,4.754,6.308,14.982c-.409,3.971-6.167,11.918-13.8,11.04-2.944-.339.986-15.968-1.183-16.362s-3.249,16.156-5.215,16c-7.015-.55-9.176-10.483-13.513-10.877S235.891,389.415,235.891,389.415Z" transform="translate(-199.667 -349)" fill="#1d1d1d"/>
  </g>
</svg>
