<svg id="card-tick_bold_card-tick" data-name="card-tick/bold/card-tick" xmlns="http://www.w3.org/2000/svg" width="24" height="24" viewBox="0 0 24 24">
  <g id="vuesax_bold_card-tick" data-name="vuesax/bold/card-tick">
    <g id="card-tick">
      <path id="Vector" d="M0,0H24V24H0Z" fill="none" opacity="0"/>
      <path id="Vector-2" data-name="Vector" d="M4,0A4,4,0,0,0,0,4,3.921,3.921,0,0,0,.58,6.06a3.985,3.985,0,0,0,6.84,0A3.921,3.921,0,0,0,8,4,4,4,0,0,0,4,0ZM6.07,3.57,3.94,5.54a.763.763,0,0,1-.51.2.742.742,0,0,1-.53-.22l-.99-.99A.75.75,0,0,1,2.97,3.47l.48.48,1.6-1.48a.75.75,0,1,1,1.02,1.1Z" transform="translate(15 15)" fill="#fff"/>
      <path id="Vector-3" data-name="Vector" d="M20,4.15V4.6a1,1,0,0,1-1,1H1a1,1,0,0,1-1-1V4.14A4.135,4.135,0,0,1,4.14,0H15.85A4.153,4.153,0,0,1,20,4.15Z" transform="translate(2 3.4)" fill="#fff"/>
      <path id="Vector-4" data-name="Vector" d="M0,1.01V5.97a4.135,4.135,0,0,0,4.14,4.14H10.4a1.019,1.019,0,0,0,1.03-1.07,5.514,5.514,0,0,1,1.71-4.51,5.078,5.078,0,0,1,2-1.21,5.6,5.6,0,0,1,3.53.01A1,1,0,0,0,20,2.39V1a1,1,0,0,0-1-1H1A1.018,1.018,0,0,0,0,1.01ZM6,6.76H4a.75.75,0,0,1,0-1.5H6a.75.75,0,0,1,0,1.5Z" transform="translate(2 10.49)" fill="#fff"/>
    </g>
  </g>
</svg>
