<svg id="print" xmlns="http://www.w3.org/2000/svg" width="24" height="24" viewBox="0 0 24 24">
  <g id="vuesax_bold_printer" data-name="vuesax/bold/printer">
    <g id="printer">
      <path id="Vector" d="M0,3A3,3,0,0,1,3,0H7a3,3,0,0,1,3,3A1,1,0,0,1,9,4H1A1,1,0,0,1,0,3Z" transform="translate(7 2)" fill="#a1a2a9"/>
      <path id="Vector-2" data-name="Vector" d="M11.5.75a.755.755,0,0,1-.75.75h-1V4.75a3,3,0,0,1-3,3h-2a3,3,0,0,1-3-3V1.5h-1A.755.755,0,0,1,0,.75.755.755,0,0,1,.75,0h10A.755.755,0,0,1,11.5.75Z" transform="translate(6.25 14.25)" fill="#a1a2a9"/>
      <path id="Vector-3" data-name="Vector" d="M15,0H3A2.652,2.652,0,0,0,0,3V8a2.652,2.652,0,0,0,3,3H4V9.75a1.75,1.75,0,0,1,0-3.5H14a1.75,1.75,0,0,1,0,3.5V11h1a2.652,2.652,0,0,0,3-3V3A2.652,2.652,0,0,0,15,0ZM7,4.75H4a.75.75,0,0,1,0-1.5H7a.75.75,0,0,1,0,1.5Z" transform="translate(3 7)" fill="#a1a2a9"/>
      <path id="Vector-4" data-name="Vector" d="M0,0H24V24H0Z" transform="translate(24 24) rotate(180)" fill="none" opacity="0"/>
    </g>
  </g>
</svg>
