<svg xmlns="http://www.w3.org/2000/svg" viewBox="0 0 50 50"><path d="M14.86,9.49C14.31,8.35,14,7.73,14,6c0-0.32-0.15-0.62-0.42-0.81c-0.26-0.19-0.59-0.24-0.9-0.14 c-1.67,0.56-3.49,1.9-5.05,3.36c4.45,5.2,9.1,4.88,11.92,4.21C17.62,12.12,15.58,10.95,14.86,9.49z M49.05,34.79 c-0.11-0.13-0.26-0.22-0.42-0.28l-7.09-2.38l-1.68-1.68l-0.34-0.89l-1.79,0.9l-0.53,0.27c-0.15,0.07-0.3,0.1-0.45,0.1 c-0.37,0-0.72-0.2-0.89-0.55c-0.25-0.49-0.05-1.09,0.44-1.34l0.72-0.36l1.8-0.9l-0.52-1.41l-1.85,0.78l-0.66,0.28 c-0.12,0.06-0.26,0.08-0.39,0.08c-0.39,0-0.76-0.22-0.92-0.61c-0.21-0.5,0.02-1.09,0.53-1.31l0.74-0.31l1.84-0.78l-0.58-1.54 l-1.88,0.68l-0.92,0.33c-0.11,0.04-0.23,0.06-0.34,0.06c-0.41,0-0.8-0.25-0.94-0.66c-0.19-0.52,0.08-1.09,0.6-1.28l0.9-0.33 l1.88-0.68l-0.58-1.55l-1.88,0.68l-0.83,0.3c-0.12,0.04-0.23,0.06-0.34,0.06c-0.41,0-0.8-0.26-0.94-0.66 c-0.19-0.52,0.08-1.09,0.6-1.28l0.81-0.29l1.88-0.68l-0.61-1.63v-0.01l-0.01-0.03c0-0.05,0.01-0.09,0-0.13 c0-0.03-0.46-3.02,0.5-6.29c0.17-0.6,0.03-1.24-0.38-1.73c-0.44-0.52-1.1-0.79-1.76-0.72c-3.4,0.37-7.92,1.97-8.11,2.04 c-0.14,0.05-0.26,0.13-0.37,0.23l-1.34,4.03c-0.11,0.33-0.38,0.588-0.721,0.658c-0.192,0.04-0.425,0.111-0.719,0.192 c-1.06,0.31-2.81,0.82-4.93,0.82c-3.01,0-6.77-1.03-10.37-5.14c-0.93,1-1.66,1.95-2.07,2.64c-3.06,5.1-4.08,11.09-4.13,11.35 c-0.04,0.27,0.03,0.54,0.19,0.76c0,0,0,0,0.001,0.001c2.099,2.767,4.782,5.046,7.853,6.667L30.73,43.24 c1.741,1.121,4.023,1.761,6.274,1.76c0.045-0.003,0.091-0.007,0.136-0.01L44.08,44c2.73-0.23,5.92-1.67,5.92-5.1 C49.66,35.46,49.22,34.97,49.05,34.79z M47.91,39.64c-0.5,1.97-3.38,2.32-4.05,2.37L36.93,43c-1.85-0.01-3.71-0.54-5.19-1.48 L8.509,29.248c-2.528-1.336-4.73-3.213-6.449-5.498l0,0c0.221-1.051,0.884-4.005,2.21-7.115c0.004-0.002,0.006-0.003,0.01-0.004 c3.41,1.2,6.05,4.31,7.28,6.61c1.38,2.59,3,5.18,5.55,6.57l3.56,1.86c0.63,0.35,2.04,0.84,2.78,0.91c0.17,0.02,0.34,0.03,0.49,0.03 c0.2,0,0.39-0.01,0.58-0.02l0.14-0.01c0.2-0.01,0.39-0.02,0.59-0.02c1,0,1.98,0.25,3.48,1.45c0.48,0.4,0.85,0.91,1.27,1.5 c0.93,1.3,2.22,3.09,5.76,4.93c0.08,0.04,0.16,0.06,0.24,0.06c0.06,0,0.12-0.01,0.17-0.03c0.74-0.27,2.93-0.97,4.07-0.97h4.52 c0.84,0,1.99,0,2.98-0.33c0.09-0.03,0.18-0.07,0.26-0.11C47.99,39.27,47.96,39.46,47.91,39.64z"/></svg>