<svg id="mouse_bold" data-name="mouse/bold" xmlns="http://www.w3.org/2000/svg" width="24" height="24" viewBox="0 0 24 24">
  <g id="vuesax_bold_mouse" data-name="vuesax/bold/mouse">
    <g id="mouse">
      <path id="Vector" d="M0,0H24V24H0Z" fill="none" opacity="0"/>
      <path id="Vector-2" data-name="Vector" d="M10,0A10,10,0,1,0,20,10,10,10,0,0,0,10,0Zm4.15,10.83-1.73.58a1.588,1.588,0,0,0-1.01,1.01l-.58,1.73a1.6,1.6,0,0,1-3.05-.03L5.83,7.84a1.605,1.605,0,0,1,2-2.02l6.29,1.95A1.608,1.608,0,0,1,14.15,10.83Z" transform="translate(2 2)" fill="#fff"/>
    </g>
  </g>
</svg>
