<svg xmlns="http://www.w3.org/2000/svg" viewBox="0 0 128 128"><path d="M63.599609 1C52.299609 1 45.700781 18 42.300781 31L25 31C20 31 16 35 16 40L16 118C16 123 20 127 25 127L103 127C108 127 112 123 112 118L112 40C112 35 108 31 103 31L84.800781 31C80.700781 17.9 73.499609 1 63.599609 1 z M 63.599609 7C68.599609 7 74.300391 18.6 78.400391 31L48.599609 31C51.899609 19.2 57.099609 7 63.599609 7 z M 25 37L40.900391 37C40.000391 41 39.600391 44.099219 39.400391 45.199219C39.200391 46.799219 40.300391 48.399609 41.900391 48.599609C43.500391 48.799609 45.100781 47.699609 45.300781 46.099609C45.700781 43.499609 46.3 40.399609 47 37.099609L80.199219 37.099609C81.099219 40.299609 81.899609 43.500781 82.599609 46.300781C82.899609 47.700781 84.1 48.699219 85.5 48.699219C85.7 48.699219 85.899609 48.699609 86.099609 48.599609C87.699609 48.199609 88.700391 46.6 88.400391 45C88.100391 43.4 87.400391 40.6 86.400391 37L103 37C104.7 37 106 38.3 106 40L106 118C106 119.7 104.7 121 103 121L25 121C23.3 121 22 119.7 22 118L22 40C22 38.3 23.3 37 25 37 z M 53.210938 66.837891C52.945874 66.842188 52.675391 66.862891 52.400391 66.900391C49.900391 67.200391 48.299219 69.499219 45.199219 73.699219C44.299219 74.899219 43.400781 76.199609 42.300781 77.599609C41.500781 78.899609 41.7 80.800781 43 81.800781C44.3 82.800781 46.199219 82.600781 47.199219 81.300781C48.299219 79.900781 49.299219 78.500781 50.199219 77.300781C51.399219 75.700781 52.899609 73.600391 53.599609 72.900391C54.799609 73.200391 56.699609 75.600781 58.099609 77.300781C60.799609 80.600781 63.799219 84.400391 68.199219 84.400391L69 84.400391C72.1 84.100391 74.400391 81.9 76.400391 80C77.900391 78.5 79.4 77.099219 80.5 77.199219C80.8 77.199219 81.299219 77.399609 81.699219 77.599609C83.199219 78.299609 84.999219 77.699219 85.699219 76.199219C86.399219 74.699219 85.800781 72.899219 84.300781 72.199219C83.200781 71.699219 82.1 71.299219 81 71.199219C77.1 70.799219 74.299609 73.499609 72.099609 75.599609C70.699609 76.899609 69.299219 78.300391 68.199219 78.400391C66.599219 78.600391 64.399609 75.8 62.599609 73.5C60.068359 70.3125 57.18689 66.773437 53.210938 66.837891 z"/></svg>