<svg id="whatsapp_bold" data-name="whatsapp/bold" xmlns="http://www.w3.org/2000/svg" width="24" height="24" viewBox="0 0 24 24">
  <g id="vuesax_bold_whatsapp" data-name="vuesax/bold/whatsapp">
    <g id="whatsapp">
      <path id="BG_164" data-name="BG 164" d="M0,0H24V24H0Z" fill="none" opacity="0.58"/>
      <path id="Vector" d="M19.986,9.41A10,10,0,1,0,1.336,15l-.89,3.31a1,1,0,0,0,1.23,1.22l3.26-.9A9.954,9.954,0,0,0,10,20,10.154,10.154,0,0,0,19.986,9.41Zm-5.1,4.31a2.386,2.386,0,0,1-.34.51,2.279,2.279,0,0,1-.82.59,2.447,2.447,0,0,1-.98.19,4.073,4.073,0,0,1-1.63-.37,9.159,9.159,0,0,1-1.72-.99,14.45,14.45,0,0,1-1.64-1.4,14.3,14.3,0,0,1-1.4-1.64,8.8,8.8,0,0,1-.98-1.71,4.234,4.234,0,0,1-.36-1.64,2.613,2.613,0,0,1,.18-.97,2.233,2.233,0,0,1,.58-.84,1.445,1.445,0,0,1,1.04-.47.978.978,0,0,1,.41.09.828.828,0,0,1,.34.28l1.16,1.64a1.614,1.614,0,0,1,.2.35A.73.73,0,0,1,9,7.65a.717.717,0,0,1-.11.36,1.76,1.76,0,0,1-.28.36l-.38.4a.257.257,0,0,0-.08.2.5.5,0,0,0,.02.12.69.69,0,0,1,.04.1,4.008,4.008,0,0,0,.47.64c.23.26.47.53.73.79s.53.51.8.74a3.84,3.84,0,0,0,.65.46c.03.01.06.03.09.04a.328.328,0,0,0,.34-.07l.38-.38a1.607,1.607,0,0,1,.36-.28.689.689,0,0,1,.36-.11.73.73,0,0,1,.31.07,1.82,1.82,0,0,1,.35.2l1.66,1.18a.844.844,0,0,1,.28.32,1.046,1.046,0,0,1,.08.39C15.006,13.35,14.966,13.54,14.886,13.72Z" transform="translate(1.994 2)" fill="#fff"/>
      <path id="Vector-2" data-name="Vector" d="M0,0H24V24H0Z" fill="none" opacity="0"/>
    </g>
  </g>
</svg>
